<?xml version="1.0" standalone="no"?>
<!DOCTYPE svg PUBLIC "-//W3C//DTD SVG 20010904//EN"
 "https://www.w3.org/TR/2001/REC-SVG-20010904/DTD/svg10.dtd">
<svg version="1.0" xmlns="https://www.w3.org/2000/svg"
 width="1200.000000pt" height="1200.000000pt" viewBox="0 0 1200.000000 1200.000000"
 preserveAspectRatio="xMidYMid meet">
<metadata>
Created by potrace 1.11, written by Peter Selinger 2001-2013
</metadata>
<g transform="translate(0.000000,1200.000000) scale(0.100000,-0.100000)"
fill="#000000" stroke="none">
<path d="M3085 10068 c-6 -24 -1445 -8215 -1445 -8223 0 -3 440 -5 978 -5
l977 0 445 2515 c245 1383 447 2515 450 2515 3 0 566 -1131 1251 -2513 l1247
-2512 973 -3 974 -2 723 4117 c398 2265 723 4121 722 4126 0 4 -436 7 -969 7
l-969 0 -5 -22 c-3 -13 -200 -1141 -438 -2508 -238 -1367 -435 -2488 -439
-2493 -4 -4 -571 1124 -1260 2508 l-1254 2515 -978 0 -978 0 -5 -22z"/>
</g>
</svg>
